<svg xmlns="http://www.w3.org/2000/svg" viewBox="0 0 96 54" width="96" height="54">
	<style>
		tspan { white-space:pre }
		.shp0 { fill: #ffffff } 
	</style>
	<g id="Layer">
		<g id="Layer">
			<path id="Layer" fill-rule="evenodd" class="shp0" d="M95.75 11L95.75 53.7L0.25 53.7L0.25 0.3L85.05 0.3L85.05 11L95.75 11ZM20.15 33.6C16.15 31.8 15.35 32.2 14.45 30.8C14.45 30.8 13.95 30 14.25 29.2C14.55 28.4 15.25 27.8 16.85 27.8C18.35 27.8 19.55 28.6 19.95 30.1L23.05 28.9C23.05 28.9 22.25 25 17.05 25C11.85 25 11.05 28.5 11.05 29.4C11.05 30.3 10.85 33.1 14.15 34.5C17.45 35.9 18.95 36 19.75 37.3C20.55 38.6 19.95 40.8 16.85 40.6C13.85 40.4 13.35 38.2 13.25 37.8L10.15 39C10.15 39 11.05 43.5 16.95 43.5C22.85 43.5 23.25 39.4 23.25 39.4C23.25 39.4 24.15 35.4 20.15 33.6ZM33.95 43.1L33.95 40.3L32.35 40.3C31.15 40.3 30.15 39.4 30.15 38.2L30.15 32.4L33.75 32.4L33.75 29.6L30.25 29.6L30.25 26.1L27.05 26.1L27.05 28.3C27.05 29.1 26.55 29.6 25.85 29.6L24.55 29.6L24.55 32.4L26.95 32.4L26.95 38.6C26.95 41.1 28.75 43.1 31.45 43.1L33.95 43.1ZM43.55 29.3C43.65 29.3 41.25 29.2 39.55 31.2L39.55 29.7L36.45 29.7L36.45 43.2L39.75 43.2L39.75 35.4C39.75 33.6 40.75 32.5 42.95 32.5L43.55 32.5L43.55 29.3ZM58.55 43.1L58.55 29.6L55.55 29.6L55.55 31.6C55.55 31.6 54.15 29.5 51.05 29.5C46.65 29.5 44.35 33 44.35 36.3C44.35 41 47.65 43.4 50.95 43.4C54.15 43.4 55.55 41.3 55.55 41.3L55.55 43.1L58.55 43.1ZM70.05 40.3L68.45 40.3C67.25 40.3 66.25 39.4 66.25 38.2L66.25 32.4L69.85 32.4L69.85 29.6L66.35 29.6L66.35 26.1L63.15 26.1L63.15 28.3C63.15 29.1 62.65 29.6 61.95 29.6L60.65 29.6L60.65 32.4L63.05 32.4L63.05 38.6C63.05 41.1 64.85 43.1 67.55 43.1L70.05 43.1L70.05 40.3ZM85.05 43L85.05 29.5L82.05 29.5L82.05 31.5C82.05 31.5 80.65 29.4 77.55 29.4C73.15 29.4 70.85 32.9 70.85 36.2C70.85 40.9 74.15 43.3 77.45 43.3C80.65 43.3 82.05 41.2 82.05 41.2L82.05 43L85.05 43Z" />
			<path id="Layer" fill-rule="evenodd" class="shp0" d="M78.05 32.2C76.05 32.2 74.15 33.5 74.15 36.4C74.15 39.2 76.05 40.6 78.05 40.6C80.45 40.6 81.95 38.7 81.95 36.4C81.95 34.1 80.55 32.2 78.05 32.2Z" />
			<path id="Layer" fill-rule="evenodd" class="shp0" d="M51.55 32.2C49.55 32.2 47.65 33.5 47.65 36.4C47.65 39.2 49.55 40.6 51.55 40.6C53.95 40.6 55.45 38.7 55.45 36.4C55.45 34.1 54.05 32.2 51.55 32.2Z" />
		</g>
	</g>
</svg>